<?xml version="1.0" encoding="utf-8"?>
<!-- Generator: Adobe Illustrator 16.0.0, SVG Export Plug-In . SVG Version: 6.00 Build 0)  -->
<!DOCTYPE svg PUBLIC "-//W3C//DTD SVG 1.1//EN" "http://www.w3.org/Graphics/SVG/1.1/DTD/svg11.dtd">
<svg version="1.1"
	 id="svg3751" inkscape:version="0.92.3 (fe8560a793, 2018-10-03, custom)" sodipodi:docname="ckweb_negro.svg" xmlns:dc="http://purl.org/dc/elements/1.1/" xmlns:cc="http://creativecommons.org/ns#" xmlns:rdf="http://www.w3.org/1999/02/22-rdf-syntax-ns#" xmlns:svg="http://www.w3.org/2000/svg" xmlns:sodipodi="http://sodipodi.sourceforge.net/DTD/sodipodi-0.dtd" xmlns:inkscape="http://www.inkscape.org/namespaces/inkscape"
	 xmlns="http://www.w3.org/2000/svg" xmlns:xlink="http://www.w3.org/1999/xlink" x="0px" y="0px" width="218.67px"
	 height="107.01px" viewBox="235.17 326.4 218.67 107.01" enable-background="new 235.17 326.4 218.67 107.01" xml:space="preserve"
	>
<sodipodi:namedview  inkscape:current-layer="g3759" inkscape:window-maximized="1" inkscape:window-y="0" inkscape:window-x="0" inkscape:window-height="768" inkscape:window-width="1366" inkscape:pageshadow="2" inkscape:pageopacity="0" inkscape:cy="263.33334" inkscape:cx="346.66666" inkscape:zoom="1.0272152" showgrid="false" guidetolerance="10" gridtolerance="10" objecttolerance="10" borderopacity="1" pagecolor="#ffffff" bordercolor="#666666" id="namedview3753">
	</sodipodi:namedview>
<g id="g3797" transform="translate(323.8721,150.1982)">
	<path id="path3799" inkscape:connector-curvature="0" d="M107.96,176.2l-27.19,81.6l-19.09-53.66
		c-3.69-9.81-6.12-16.29-10.39-20.98c-5.95-6.55-13.19-7.45-22.69-7.45h-0.76v17.8c7.51,0,10.56,0.46,13.74,8.77l6.17,17.54
		l-15.3,37.97L3.53,176.2h-19.42l37.62,107.01h0.47h19.25h0.47l14.68-36.68l14.68,36.68h0.47H91h0.47l35.9-107.01H107.96z"/>
</g>
<g id="g3809" transform="translate(201.5547,150.1982)">
	<path id="path3811" inkscape:connector-curvature="0" d="M67.19,176.2l37.81,107.01h19.53L86.71,176.2H67.19z"/>
</g>
<path id="path3821" inkscape:connector-curvature="0" d="M248.55,374.55h16.81v-16.8h-16.81V374.55z"/>
<path id="path3823" inkscape:connector-curvature="0" d="M248.55,408.16h16.81v-16.81h-16.81V408.16z"/>
<g id="g3759_1_" transform="matrix(1.3333333,0,0,-1.3333333,0,526.66667)" inkscape:groupmode="layer" inkscape:label="logo final ckweb curvas">
	<g id="g3797_1_" transform="translate(323.8721,150.1982)">
		<path id="path3799_1_" inkscape:connector-curvature="0" d="M-126.78-68.05l-1.26-3.77l-0.88,2.48c-0.17,0.45-0.28,0.75-0.48,0.97
			c-0.27,0.3-0.61,0.34-1.05,0.34h-0.04v-0.82c0.35,0,0.49-0.02,0.64-0.41l0.28-0.81l-0.71-1.75l-1.34,3.77h-0.9l1.74-4.95h0.02
			h0.89h0.02l0.68,1.69l0.68-1.69h0.02h0.89h0.02l1.66,4.95H-126.78z"/>
	</g>
	<g id="g3801_1_" transform="translate(360.9795,105.1387)">
		<path id="path3803_1_" inkscape:connector-curvature="0" d="M-161.61-25.77h1.68v0.69h-1.68v1.34h2.66v0.75h-3.5v-4.95h3.54v0.75
			h-2.7V-25.77z"/>
	</g>
	<g id="g3805_1_" transform="translate(451.4375,81.4053)">
		<path id="path3807_1_" inkscape:connector-curvature="0" d="M-246.49-3.5h-1.27v1.47h1.27c0.55,0,0.91-0.25,0.91-0.71
			C-245.58-3.25-245.93-3.5-246.49-3.5 M-247.76,0.03h1.11c0.6,0,0.88-0.3,0.88-0.68c0-0.4-0.28-0.71-0.88-0.71h-1.11V0.03z
			 M-245.65-1.64c0.45,0.2,0.74,0.54,0.74,1.06c0,0.75-0.54,1.32-1.7,1.32h-1.99v-4.95h2.12c1.08,0,1.77,0.51,1.77,1.41
			C-244.72-2.19-245.09-1.82-245.65-1.64"/>
	</g>
	<g id="g3809_1_" transform="translate(201.5547,150.1982)">
		<path id="path3811_1_" inkscape:connector-curvature="0" d="M-12-68.05l1.75-4.95h0.9l-1.75,4.95H-12z"/>
	</g>
	<g id="g3813_1_" transform="translate(77.1743,80.4883)">
		<path id="path3815_1_" inkscape:connector-curvature="0" d="M104.71-2.64c-1.03,0-1.69,0.74-1.69,1.87c0,1.07,0.68,1.78,1.69,1.78
			c0.47,0,0.87-0.16,1.25-0.46l0.46,0.61c-0.5,0.39-1.08,0.59-1.72,0.59c-1.49,0-2.54-1.04-2.54-2.51c0-1.53,1.02-2.6,2.51-2.6
			c0.73,0,1.35,0.23,1.86,0.72l-0.52,0.55C105.65-2.46,105.22-2.64,104.71-2.64"/>
	</g>
	<g id="g3817_1_" transform="translate(163.9946,124.6768)">
		<path id="path3819_1_" inkscape:connector-curvature="0" d="M23.24-44.11c0.15,0.39,0.25,0.58,0.37,0.67
			c0.12,0.09,0.3,0.13,0.69,0.13v0.78c-0.49,0-0.83-0.04-1.16-0.29c-0.14-0.11-0.26-0.25-0.36-0.44c-0.08-0.14-0.16-0.32-0.25-0.57
			c-0.15-0.4-0.24-0.55-0.37-0.63c-0.16-0.09-0.47-0.11-0.92-0.12v2.04h-0.85v-4.95h0.85v2.13c0.44,0,0.76,0.02,1.02,0.1l1.23-2.23
			h0.98l-1.55,2.69C23.05-44.59,23.15-44.36,23.24-44.11"/>
	</g>
	<path id="path3821_1_" inkscape:connector-curvature="0" d="M188.62,79.92h0.78v0.78h-0.78V79.92z"/>
	<path id="path3823_1_" inkscape:connector-curvature="0" d="M188.62,78.37h0.78v0.78h-0.78V78.37z"/>
</g>
</svg>
