<?xml version="1.0" standalone="no"?>
<!DOCTYPE svg PUBLIC "-//W3C//DTD SVG 20010904//EN"
 "http://www.w3.org/TR/2001/REC-SVG-20010904/DTD/svg10.dtd">
<svg version="1.0" xmlns="http://www.w3.org/2000/svg"
 width="456.000000pt" height="456.000000pt" viewBox="0 0 456.000000 456.000000"
 preserveAspectRatio="xMidYMid meet">
<metadata>
Created by potrace 1.11, written by Peter Selinger 2001-2013
</metadata>
<g transform="translate(0.000000,456.000000) scale(0.100000,-0.100000)"
fill="#000000" stroke="none">
<path d="M2350 3248 l0 -195 74 -6 c84 -6 122 -22 161 -69 35 -41 51 -79 132
-309 l65 -186 -163 -402 c-89 -221 -165 -398 -169 -394 -4 4 -136 375 -295
823 -158 448 -297 839 -307 868 l-19 52 -210 0 c-115 0 -209 -2 -209 -4 0 -3
172 -492 381 -1088 210 -596 392 -1116 406 -1155 l25 -73 218 0 218 0 158 395
c87 217 159 394 160 392 1 -1 73 -179 159 -394 l157 -393 218 0 217 0 387
1153 c212 634 386 1156 386 1160 0 4 -94 7 -209 7 l-209 0 -292 -876 c-176
-526 -296 -871 -300 -863 -4 8 -101 277 -215 599 -294 829 -326 901 -437 1007
-97 91 -196 127 -380 139 l-108 7 0 -195z"/>
<path d="M607 3298 c26 -73 209 -594 409 -1158 l362 -1025 211 -3 c116 -1 211
1 211 4 0 4 -183 526 -407 1161 l-408 1153 -212 0 -213 0 47 -132z"/>
<path d="M130 2565 l0 -185 180 0 180 0 0 185 0 185 -180 0 -180 0 0 -185z"/>
<path d="M130 1845 l0 -185 180 0 180 0 0 185 0 185 -180 0 -180 0 0 -185z"/>
</g>
</svg>
