<?xml version="1.0" encoding="utf-8"?>
<!-- Generator: Adobe Illustrator 16.0.0, SVG Export Plug-In . SVG Version: 6.00 Build 0)  -->
<!DOCTYPE svg PUBLIC "-//W3C//DTD SVG 1.1//EN" "http://www.w3.org/Graphics/SVG/1.1/DTD/svg11.dtd">
<svg version="1.1"
	 id="svg3751" inkscape:version="0.92.3 (fe8560a793, 2018-10-03, custom)" sodipodi:docname="ckweb_negro.svg" xmlns:dc="http://purl.org/dc/elements/1.1/" xmlns:cc="http://creativecommons.org/ns#" xmlns:rdf="http://www.w3.org/1999/02/22-rdf-syntax-ns#" xmlns:svg="http://www.w3.org/2000/svg" xmlns:sodipodi="http://sodipodi.sourceforge.net/DTD/sodipodi-0.dtd" xmlns:inkscape="http://www.inkscape.org/namespaces/inkscape"
	 xmlns="http://www.w3.org/2000/svg" xmlns:xlink="http://www.w3.org/1999/xlink" x="0px" y="0px" width="592.58px"
	 height="110.68px" viewBox="47.71 324.57 592.58 110.68" enable-background="new 47.71 324.57 592.58 110.68" xml:space="preserve"
	>
<sodipodi:namedview  inkscape:current-layer="g3759" inkscape:window-maximized="1" inkscape:window-y="0" inkscape:window-x="0" inkscape:window-height="768" inkscape:window-width="1366" inkscape:pageshadow="2" inkscape:pageopacity="0" inkscape:cy="263.33334" inkscape:cx="346.66666" inkscape:zoom="1.0272152" showgrid="false" guidetolerance="10" gridtolerance="10" objecttolerance="10" borderopacity="1" pagecolor="#ffffff" bordercolor="#666666" id="namedview3753">
	</sodipodi:namedview>
<g id="g3759" transform="matrix(1.3333333,0,0,-1.3333333,0,526.66667)" inkscape:groupmode="layer" inkscape:label="logo final ckweb curvas">
	<g id="g3797" transform="translate(323.8721,150.1982)">
		<path id="path3799" inkscape:connector-curvature="0" fill="#1E130F" d="M0,0l-20.4-61.2l-14.31,40.24
			C-37.48-13.6-39.3-8.74-42.5-5.22c-4.46,4.91-9.89,5.59-17.02,5.59h-0.57v-13.35c5.63,0,7.92-0.35,10.31-6.58l4.62-13.15
			L-56.63-61.2L-78.32,0h-14.56l28.21-80.26h0.35h14.44h0.35l11.01,27.51l11.01-27.51h0.35h14.44h0.35L14.56,0H0z"/>
	</g>
	<g id="g3801" transform="translate(360.9795,105.1387)">
		<path id="path3803" inkscape:connector-curvature="0" fill="#1E130F" d="M0,0h27.27v11.24H0v21.67h43.23v12.15h-56.87V-35.2H43.8
			v12.15H0V0z"/>
	</g>
	<g id="g3805" transform="translate(451.4375,81.4053)">
		<path id="path3807" inkscape:connector-curvature="0" fill="#1E130F" d="M0,0h-20.64v23.85H0c8.94,0,14.79-4.01,14.79-11.58
			C14.79,4.13,9.06,0,0,0 M-20.64,57.33h18c9.75,0,14.33-4.81,14.33-11.01c0-6.53-4.59-11.58-14.33-11.58h-18V57.33z M13.64,30.15
			c7.34,3.21,12.04,8.71,12.04,17.2c0,12.15-8.83,21.44-27.63,21.44h-32.33v-80.26h34.4c17.54,0,28.66,8.25,28.66,22.93
			C28.78,21.21,22.7,27.29,13.64,30.15"/>
	</g>
	<g id="g3809" transform="translate(201.5547,150.1982)">
		<path id="path3811" inkscape:connector-curvature="0" fill="#1E130F" d="M0,0l28.36-80.26H43L14.65,0H0z"/>
	</g>
	<g id="g3813" transform="translate(77.1743,80.4883)">
		<path id="path3815" inkscape:connector-curvature="0" fill="#1E130F" d="M0,0c-16.74,0-27.4,12.04-27.4,30.27
			C-27.4,47.7-16.4,59.16,0,59.16c7.68,0,14.1-2.64,20.29-7.45l7.45,9.86c-8.14,6.31-17.54,9.52-27.98,9.52
			c-24.19,0-41.16-16.85-41.16-40.82c0-24.88,16.51-42.19,40.82-42.19c11.92,0,21.9,3.78,30.15,11.7L21.1,8.71
			C15.25,2.98,8.26,0,0,0"/>
	</g>
	<g id="g3817" transform="translate(163.9946,124.6768)">
		<path id="path3819" inkscape:connector-curvature="0" fill="#1E130F" d="M0,0c2.37,6.31,4.04,9.35,5.95,10.82
			c1.9,1.47,4.84,2.09,11.18,2.09v12.6c-7.96,0-13.5-0.57-18.88-4.71c-2.26-1.74-4.2-4.06-5.92-7.08c-1.32-2.33-2.6-5.19-4.14-9.28
			c-2.42-6.44-3.92-9-5.96-10.16c-2.56-1.46-7.6-1.84-14.87-1.89v33.13h-13.76v-80.26h13.76v34.52c7.19,0.05,12.4,0.4,16.6,1.64
			L3.95-54.74h15.94L-5.34-11.01C-3.1-7.87-1.54-4.1,0,0"/>
	</g>
	<path id="path3821" inkscape:connector-curvature="0" fill="#1E130F" d="M186.42,114.09h12.6v12.6h-12.6V114.09z"/>
	<path id="path3823" inkscape:connector-curvature="0" fill="#1E130F" d="M186.42,88.88h12.6v12.6h-12.6V88.88z"/>
</g>
</svg>
