<?xml version="1.0" encoding="utf-8"?>
<!-- Generator: Adobe Illustrator 16.0.0, SVG Export Plug-In . SVG Version: 6.00 Build 0)  -->
<!DOCTYPE svg PUBLIC "-//W3C//DTD SVG 1.1//EN" "http://www.w3.org/Graphics/SVG/1.1/DTD/svg11.dtd">
<svg version="1.1"
	 id="svg3751" inkscape:version="0.92.3 (fe8560a793, 2018-10-03, custom)" sodipodi:docname="ckweb_negro.svg" xmlns:dc="http://purl.org/dc/elements/1.1/" xmlns:cc="http://creativecommons.org/ns#" xmlns:rdf="http://www.w3.org/1999/02/22-rdf-syntax-ns#" xmlns:svg="http://www.w3.org/2000/svg" xmlns:sodipodi="http://sodipodi.sourceforge.net/DTD/sodipodi-0.dtd" xmlns:inkscape="http://www.inkscape.org/namespaces/inkscape"
	 xmlns="http://www.w3.org/2000/svg" xmlns:xlink="http://www.w3.org/1999/xlink" x="0px" y="0px" width="218.67px"
	 height="218.33px" viewBox="235.17 215.08 218.67 218.33" enable-background="new 235.17 215.08 218.67 218.33"
	 xml:space="preserve">
<sodipodi:namedview  inkscape:current-layer="g3759" inkscape:window-maximized="1" inkscape:window-y="0" inkscape:window-x="0" inkscape:window-height="768" inkscape:window-width="1366" inkscape:pageshadow="2" inkscape:pageopacity="0" inkscape:cy="263.33334" inkscape:cx="346.66666" inkscape:zoom="1.0272152" showgrid="false" guidetolerance="10" gridtolerance="10" objecttolerance="10" borderopacity="1" pagecolor="#ffffff" bordercolor="#666666" id="namedview3753">
	</sodipodi:namedview>
<g>
	<g id="g3797" transform="translate(323.8721,150.1982)">
		<path id="path3799" inkscape:connector-curvature="0" d="M107.26,118.88L79.1,203.4l-19.77-55.57
			c-3.82-10.16-6.34-16.88-10.76-21.73c-6.17-6.78-13.66-7.71-23.5-7.71h-0.78v18.44c7.77,0,10.93,0.48,14.23,9.09l6.39,18.16
			L29.06,203.4L-0.9,118.88h-20.11l38.96,110.84h0.49h19.94h0.49l15.2-37.99l15.2,37.99h0.49H89.7h0.49l37.18-110.84H107.26z"/>
	</g>
	<g id="g3809" transform="translate(201.5547,150.1982)">
		<path id="path3811" inkscape:connector-curvature="0" d="M60.66,118.88l39.16,110.84h20.23L80.88,118.88H60.66z"/>
	</g>
	<path id="path3821" inkscape:connector-curvature="0" d="M241.3,318.95h17.41v-17.41H241.3V318.95z"/>
	<path id="path3823" inkscape:connector-curvature="0" d="M241.3,353.76h17.41v-17.41H241.3V353.76z"/>
</g>
</svg>
